<svg width="134" height="151" viewBox="0 0 134 151" fill="none" xmlns="http://www.w3.org/2000/svg">
<g clip-path="url(#clip0_1039_24)">
<g filter="url(#filter0_d_1039_24)">
<path d="M121.309 75.9498C127.546 77.5389 130.731 84.4747 127.87 90.2411C125.01 96.0075 117.56 97.668 112.521 93.6626L83.659 70.7197C82.8433 70.0713 82.5914 68.941 83.0548 68.0074C83.5181 67.0738 84.5703 66.5907 85.5803 66.8479L121.309 75.9498Z" fill="url(#paint0_linear_1039_24)"/>
</g>
<g filter="url(#filter1_d_1039_24)">
<path d="M58.2976 111.899C56.7085 118.137 49.7725 121.321 44.0062 118.46C38.2399 115.599 36.5795 108.15 40.5849 103.111L63.5277 74.2491C64.1762 73.4332 65.3064 73.1813 66.24 73.6445C67.1736 74.1076 67.6567 75.1601 67.3995 76.17L58.2976 111.899Z" fill="url(#paint1_linear_1039_24)"/>
</g>
<g filter="url(#filter2_d_1039_24)">
<path d="M22.3703 48.9333C16.1325 47.3443 12.9482 40.4083 15.8089 34.6419C18.6697 28.8756 26.1189 27.2152 31.1579 31.2207L60.0197 54.1634C60.8356 54.8119 61.0875 55.9422 60.6243 56.8758C60.1611 57.8093 59.1087 58.2925 58.0989 58.0352L22.3703 48.9333Z" fill="url(#paint2_linear_1039_24)"/>
</g>
<g filter="url(#filter3_d_1039_24)">
<path d="M85.327 12.9758C86.9162 6.73804 93.8515 3.55364 99.6178 6.41442C105.384 9.27521 107.045 16.7245 103.039 21.7634L80.0968 50.6252C79.4482 51.4411 78.3179 51.693 77.3844 51.2298C76.4508 50.7667 75.9676 49.7142 76.2249 48.7043L85.327 12.9758Z" fill="url(#paint3_linear_1039_24)"/>
</g>
<g filter="url(#filter4_d_1039_24)">
<path d="M30.2762 86.172C24.9516 90.8967 16.5319 88.6563 14.2599 81.9098C11.9878 75.1635 17.3364 68.286 24.4345 68.8268L40.2003 70.0281C41.4963 70.1268 42.6076 70.9911 43.0225 72.2228C43.4373 73.4546 43.0753 74.8151 42.1031 75.6777L30.2762 86.172Z" fill="url(#paint4_linear_1039_24)"/>
</g>
<g filter="url(#filter5_d_1039_24)">
<path d="M109.838 40.1237C115.162 35.399 123.582 37.6396 125.854 44.3858C128.126 51.1321 122.778 58.0097 115.68 57.4688L99.9138 56.2676C98.6178 56.1689 97.5065 55.3046 97.0917 54.0728C96.6762 52.8411 97.0383 51.4806 98.0111 50.6179L109.838 40.1237Z" fill="url(#paint5_linear_1039_24)"/>
</g>
<g filter="url(#filter6_d_1039_24)">
<path d="M47.0563 23.3729C42.3316 18.0482 44.5722 9.62861 51.3184 7.35655C58.0647 5.08447 64.9423 10.4332 64.4015 17.5311L63.2002 33.297C63.1015 34.593 62.2372 35.7043 61.0055 36.1192C59.7737 36.534 58.4132 36.172 57.5506 35.1997L47.0563 23.3729Z" fill="url(#paint6_linear_1039_24)"/>
</g>
<g filter="url(#filter7_d_1039_24)">
<path d="M93.0899 102.918C97.8146 108.242 95.5742 116.662 88.8277 118.934C82.0812 121.206 75.204 115.858 75.7448 108.76L76.946 92.9939C77.0448 91.6979 77.909 90.5865 79.1408 90.1718C80.3726 89.7563 81.7329 90.1184 82.5955 91.0912L93.0899 102.918Z" fill="url(#paint7_linear_1039_24)"/>
</g>
<g filter="url(#filter8_d_1039_24)">
<path d="M24.2287 141.678C17.5902 136.415 7.43035 122.909 19.8984 111" stroke="#11E442" stroke-width="14.3234" stroke-linecap="round" shape-rendering="crispEdges"/>
</g>
</g>
<defs>
<filter id="filter0_d_1039_24" x="74.8242" y="58.7793" width="62.1055" height="45.0811" filterUnits="userSpaceOnUse" color-interpolation-filters="sRGB">
<feFlood flood-opacity="0" result="BackgroundImageFix"/>
<feColorMatrix in="SourceAlpha" type="matrix" values="0 0 0 0 0 0 0 0 0 0 0 0 0 0 0 0 0 0 127 0" result="hardAlpha"/>
<feOffset/>
<feGaussianBlur stdDeviation="4"/>
<feComposite in2="hardAlpha" operator="out"/>
<feColorMatrix type="matrix" values="0 0 0 0 0.407843 0 0 0 0 0.654902 0 0 0 0 1 0 0 0 1 0"/>
<feBlend mode="normal" in2="BackgroundImageFix" result="effect1_dropShadow_1039_24"/>
<feBlend mode="normal" in="SourceGraphic" in2="effect1_dropShadow_1039_24" result="shape"/>
</filter>
<filter id="filter1_d_1039_24" x="30.3867" y="65.4141" width="45.082" height="62.1045" filterUnits="userSpaceOnUse" color-interpolation-filters="sRGB">
<feFlood flood-opacity="0" result="BackgroundImageFix"/>
<feColorMatrix in="SourceAlpha" type="matrix" values="0 0 0 0 0 0 0 0 0 0 0 0 0 0 0 0 0 0 127 0" result="hardAlpha"/>
<feOffset/>
<feGaussianBlur stdDeviation="4"/>
<feComposite in2="hardAlpha" operator="out"/>
<feColorMatrix type="matrix" values="0 0 0 0 0.407843 0 0 0 0 0.654902 0 0 0 0 1 0 0 0 1 0"/>
<feBlend mode="normal" in2="BackgroundImageFix" result="effect1_dropShadow_1039_24"/>
<feBlend mode="normal" in="SourceGraphic" in2="effect1_dropShadow_1039_24" result="shape"/>
</filter>
<filter id="filter2_d_1039_24" x="6.75" y="21.0225" width="62.1055" height="45.0811" filterUnits="userSpaceOnUse" color-interpolation-filters="sRGB">
<feFlood flood-opacity="0" result="BackgroundImageFix"/>
<feColorMatrix in="SourceAlpha" type="matrix" values="0 0 0 0 0 0 0 0 0 0 0 0 0 0 0 0 0 0 127 0" result="hardAlpha"/>
<feOffset/>
<feGaussianBlur stdDeviation="4"/>
<feComposite in2="hardAlpha" operator="out"/>
<feColorMatrix type="matrix" values="0 0 0 0 0.407843 0 0 0 0 0.654902 0 0 0 0 1 0 0 0 1 0"/>
<feBlend mode="normal" in2="BackgroundImageFix" result="effect1_dropShadow_1039_24"/>
<feBlend mode="normal" in="SourceGraphic" in2="effect1_dropShadow_1039_24" result="shape"/>
</filter>
<filter id="filter3_d_1039_24" x="68.1562" y="-2.64453" width="45.082" height="62.1045" filterUnits="userSpaceOnUse" color-interpolation-filters="sRGB">
<feFlood flood-opacity="0" result="BackgroundImageFix"/>
<feColorMatrix in="SourceAlpha" type="matrix" values="0 0 0 0 0 0 0 0 0 0 0 0 0 0 0 0 0 0 127 0" result="hardAlpha"/>
<feOffset/>
<feGaussianBlur stdDeviation="4"/>
<feComposite in2="hardAlpha" operator="out"/>
<feColorMatrix type="matrix" values="0 0 0 0 0.407843 0 0 0 0 0.654902 0 0 0 0 1 0 0 0 1 0"/>
<feBlend mode="normal" in2="BackgroundImageFix" result="effect1_dropShadow_1039_24"/>
<feBlend mode="normal" in="SourceGraphic" in2="effect1_dropShadow_1039_24" result="shape"/>
</filter>
<filter id="filter4_d_1039_24" x="5.73047" y="60.7969" width="45.4609" height="35.8848" filterUnits="userSpaceOnUse" color-interpolation-filters="sRGB">
<feFlood flood-opacity="0" result="BackgroundImageFix"/>
<feColorMatrix in="SourceAlpha" type="matrix" values="0 0 0 0 0 0 0 0 0 0 0 0 0 0 0 0 0 0 127 0" result="hardAlpha"/>
<feOffset/>
<feGaussianBlur stdDeviation="4"/>
<feComposite in2="hardAlpha" operator="out"/>
<feColorMatrix type="matrix" values="0 0 0 0 0.407843 0 0 0 0 0.654902 0 0 0 0 1 0 0 0 1 0"/>
<feBlend mode="normal" in2="BackgroundImageFix" result="effect1_dropShadow_1039_24"/>
<feBlend mode="normal" in="SourceGraphic" in2="effect1_dropShadow_1039_24" result="shape"/>
</filter>
<filter id="filter5_d_1039_24" x="88.9219" y="29.6143" width="45.4609" height="35.8848" filterUnits="userSpaceOnUse" color-interpolation-filters="sRGB">
<feFlood flood-opacity="0" result="BackgroundImageFix"/>
<feColorMatrix in="SourceAlpha" type="matrix" values="0 0 0 0 0 0 0 0 0 0 0 0 0 0 0 0 0 0 127 0" result="hardAlpha"/>
<feOffset/>
<feGaussianBlur stdDeviation="4"/>
<feComposite in2="hardAlpha" operator="out"/>
<feColorMatrix type="matrix" values="0 0 0 0 0.407843 0 0 0 0 0.654902 0 0 0 0 1 0 0 0 1 0"/>
<feBlend mode="normal" in2="BackgroundImageFix" result="effect1_dropShadow_1039_24"/>
<feBlend mode="normal" in="SourceGraphic" in2="effect1_dropShadow_1039_24" result="shape"/>
</filter>
<filter id="filter6_d_1039_24" x="36.5469" y="-1.17285" width="35.8828" height="45.4619" filterUnits="userSpaceOnUse" color-interpolation-filters="sRGB">
<feFlood flood-opacity="0" result="BackgroundImageFix"/>
<feColorMatrix in="SourceAlpha" type="matrix" values="0 0 0 0 0 0 0 0 0 0 0 0 0 0 0 0 0 0 127 0" result="hardAlpha"/>
<feOffset/>
<feGaussianBlur stdDeviation="4"/>
<feComposite in2="hardAlpha" operator="out"/>
<feColorMatrix type="matrix" values="0 0 0 0 0.407843 0 0 0 0 0.654902 0 0 0 0 1 0 0 0 1 0"/>
<feBlend mode="normal" in2="BackgroundImageFix" result="effect1_dropShadow_1039_24"/>
<feBlend mode="normal" in="SourceGraphic" in2="effect1_dropShadow_1039_24" result="shape"/>
</filter>
<filter id="filter7_d_1039_24" x="67.7148" y="82.002" width="35.8828" height="45.4619" filterUnits="userSpaceOnUse" color-interpolation-filters="sRGB">
<feFlood flood-opacity="0" result="BackgroundImageFix"/>
<feColorMatrix in="SourceAlpha" type="matrix" values="0 0 0 0 0 0 0 0 0 0 0 0 0 0 0 0 0 0 127 0" result="hardAlpha"/>
<feOffset/>
<feGaussianBlur stdDeviation="4"/>
<feComposite in2="hardAlpha" operator="out"/>
<feColorMatrix type="matrix" values="0 0 0 0 0.407843 0 0 0 0 0.654902 0 0 0 0 1 0 0 0 1 0"/>
<feBlend mode="normal" in2="BackgroundImageFix" result="effect1_dropShadow_1039_24"/>
<feBlend mode="normal" in="SourceGraphic" in2="effect1_dropShadow_1039_24" result="shape"/>
</filter>
<filter id="filter8_d_1039_24" x="-1.16016" y="95.8379" width="40.5508" height="61.002" filterUnits="userSpaceOnUse" color-interpolation-filters="sRGB">
<feFlood flood-opacity="0" result="BackgroundImageFix"/>
<feColorMatrix in="SourceAlpha" type="matrix" values="0 0 0 0 0 0 0 0 0 0 0 0 0 0 0 0 0 0 127 0" result="hardAlpha"/>
<feOffset/>
<feGaussianBlur stdDeviation="4"/>
<feComposite in2="hardAlpha" operator="out"/>
<feColorMatrix type="matrix" values="0 0 0 0 0.0666667 0 0 0 0 0.894118 0 0 0 0 0.258824 0 0 0 1 0"/>
<feBlend mode="normal" in2="BackgroundImageFix" result="effect1_dropShadow_1039_24"/>
<feBlend mode="normal" in="SourceGraphic" in2="effect1_dropShadow_1039_24" result="shape"/>
</filter>
<linearGradient id="paint0_linear_1039_24" x1="127.87" y1="90.2411" x2="83.0548" y2="68.0074" gradientUnits="userSpaceOnUse">
<stop stop-color="#74AEFF"/>
<stop offset="1" stop-color="#61A3FF"/>
</linearGradient>
<linearGradient id="paint1_linear_1039_24" x1="44.0062" y1="118.46" x2="66.24" y2="73.6445" gradientUnits="userSpaceOnUse">
<stop stop-color="#74AEFF"/>
<stop offset="1" stop-color="#61A3FF"/>
</linearGradient>
<linearGradient id="paint2_linear_1039_24" x1="15.8089" y1="34.6419" x2="60.6243" y2="56.8758" gradientUnits="userSpaceOnUse">
<stop stop-color="#74AEFF"/>
<stop offset="1" stop-color="#61A3FF"/>
</linearGradient>
<linearGradient id="paint3_linear_1039_24" x1="99.6178" y1="6.41442" x2="77.3844" y2="51.2298" gradientUnits="userSpaceOnUse">
<stop stop-color="#74AEFF"/>
<stop offset="1" stop-color="#61A3FF"/>
</linearGradient>
<linearGradient id="paint4_linear_1039_24" x1="14.2599" y1="81.9098" x2="43.0225" y2="72.2228" gradientUnits="userSpaceOnUse">
<stop stop-color="#74AEFF"/>
<stop offset="1" stop-color="#61A3FF"/>
</linearGradient>
<linearGradient id="paint5_linear_1039_24" x1="125.854" y1="44.3858" x2="97.0917" y2="54.0728" gradientUnits="userSpaceOnUse">
<stop stop-color="#74AEFF"/>
<stop offset="1" stop-color="#61A3FF"/>
</linearGradient>
<linearGradient id="paint6_linear_1039_24" x1="51.3184" y1="7.35655" x2="61.0055" y2="36.1192" gradientUnits="userSpaceOnUse">
<stop stop-color="#74AEFF"/>
<stop offset="1" stop-color="#61A3FF"/>
</linearGradient>
<linearGradient id="paint7_linear_1039_24" x1="88.8277" y1="118.934" x2="79.1409" y2="90.1718" gradientUnits="userSpaceOnUse">
<stop stop-color="#74AEFF"/>
<stop offset="1" stop-color="#61A3FF"/>
</linearGradient>
<clipPath id="clip0_1039_24">
<rect width="132.84" height="149.85" fill="white" transform="translate(0.578125 0.575195)"/>
</clipPath>
</defs>
</svg>
