<svg width="133" height="35" viewBox="0 0 133 35" fill="none" xmlns="http://www.w3.org/2000/svg">
<path d="M44.7254 21.7872V18.216H48.959C50.207 18.216 51.1382 17.9568 51.7526 17.4384C52.367 16.92 52.6742 16.0464 52.6742 14.8176C52.6742 13.7424 52.3862 12.9264 51.8102 12.3696C51.2534 11.8128 50.3606 11.5344 49.1318 11.5344H44.7254V7.992H49.2758C50.5046 7.992 51.6086 8.136 52.5878 8.424C53.5862 8.712 54.4406 9.144 55.151 9.72C55.8614 10.2768 56.399 10.9968 56.7638 11.88C57.1478 12.744 57.3398 13.7616 57.3398 14.9328C57.3398 16.4304 56.9942 17.688 56.303 18.7056C55.631 19.7232 54.623 20.4912 53.279 21.0096C51.9542 21.528 50.2934 21.7872 48.2966 21.7872H44.7254ZM41.327 27V7.992H45.9638V27H41.327ZM66.9113 27.4032C65.3753 27.4032 64.0121 27.1056 62.8217 26.5104C61.6505 25.9152 60.7289 25.0224 60.0569 23.832C59.3849 22.6416 59.0489 21.1536 59.0489 19.368C59.0489 17.5824 59.3849 16.104 60.0569 14.9328C60.7289 13.7424 61.6601 12.8592 62.8505 12.2832C64.0409 11.688 65.4041 11.3904 66.9401 11.3904C68.4761 11.3904 69.8393 11.688 71.0297 12.2832C72.2201 12.8784 73.1513 13.7712 73.8233 14.9616C74.4953 16.1328 74.8313 17.6112 74.8313 19.3968C74.8313 21.2208 74.4857 22.728 73.7945 23.9184C73.1033 25.1088 72.1529 25.992 70.9433 26.568C69.7529 27.1248 68.4089 27.4032 66.9113 27.4032ZM67.0553 24.0336C67.7465 24.0336 68.3225 23.88 68.7833 23.5728C69.2441 23.2464 69.5897 22.7568 69.8201 22.104C70.0505 21.4512 70.1657 20.6448 70.1657 19.6848C70.1657 18.6672 70.0409 17.8128 69.7913 17.1216C69.5417 16.4112 69.1673 15.8736 68.6681 15.5088C68.1881 15.1248 67.5641 14.9328 66.7961 14.9328C66.1433 14.9328 65.5769 15.096 65.0969 15.4224C64.6361 15.7296 64.2905 16.2096 64.0601 16.8624C63.8297 17.5152 63.7145 18.3312 63.7145 19.3104C63.7145 20.8848 64.0025 22.0656 64.5785 22.8528C65.1737 23.64 65.9993 24.0336 67.0553 24.0336ZM77.5473 31.8672V19.5696V11.7936H81.3489L81.4065 16.1136L81.9249 16.1712C82.0977 15.096 82.4049 14.2032 82.8465 13.4928C83.2881 12.7824 83.8545 12.2544 84.5457 11.9088C85.2561 11.5632 86.0625 11.3904 86.9649 11.3904C88.3089 11.3904 89.4609 11.7168 90.4209 12.3696C91.4001 13.0224 92.1489 13.9536 92.6673 15.1632C93.1857 16.3728 93.4449 17.8224 93.4449 19.512C93.4449 21.0096 93.2145 22.3536 92.7537 23.544C92.3121 24.7344 91.6305 25.6752 90.7089 26.3664C89.8065 27.0576 88.6545 27.4032 87.2529 27.4032C86.3121 27.4032 85.5153 27.24 84.8625 26.9136C84.2097 26.568 83.6529 26.0688 83.1921 25.416C82.7505 24.7632 82.3761 23.9472 82.0689 22.968H81.5217C81.6369 23.4864 81.7425 24.0144 81.8385 24.552C81.9345 25.0896 82.0113 25.608 82.0689 26.1072C82.1457 26.6064 82.1841 27.0864 82.1841 27.5472V31.8672H77.5473ZM85.5537 23.7456C86.1873 23.7456 86.7249 23.5728 87.1665 23.2272C87.6273 22.8816 87.9825 22.392 88.2321 21.7584C88.4817 21.1248 88.6065 20.3856 88.6065 19.5408C88.6065 18.6384 88.4721 17.8704 88.2033 17.2368C87.9537 16.584 87.5889 16.0848 87.1089 15.7392C86.6289 15.3744 86.0721 15.192 85.4385 15.192C84.8433 15.192 84.3345 15.3264 83.9121 15.5952C83.5089 15.8448 83.1729 16.1808 82.9041 16.6032C82.6545 17.0064 82.4721 17.4384 82.3569 17.8992C82.2417 18.36 82.1841 18.792 82.1841 19.1952V19.8288C82.1841 20.1936 82.2321 20.5584 82.3281 20.9232C82.4241 21.288 82.5681 21.6432 82.7601 21.9888C82.9521 22.3152 83.1825 22.6128 83.4513 22.8816C83.7201 23.1504 84.0273 23.3616 84.3729 23.5152C84.7377 23.6688 85.1313 23.7456 85.5537 23.7456ZM96.2223 27V6.2352H100.773V17.6976C101.33 17.2944 101.848 16.8624 102.328 16.4016C102.827 15.9408 103.278 15.4608 103.682 14.9616C104.104 14.4624 104.478 13.9536 104.805 13.4352C105.15 12.8976 105.448 12.3504 105.698 11.7936H110.997C110.747 12.5424 110.402 13.2912 109.96 14.04C109.518 14.7696 108.981 15.4512 108.347 16.0848C107.714 16.6992 106.955 17.2272 106.072 17.6688C105.208 18.1104 104.229 18.408 103.134 18.5616V19.08C104.517 18.8112 105.65 18.8112 106.533 19.08C107.435 19.3296 108.155 19.7424 108.693 20.3184C109.23 20.8944 109.643 21.5664 109.931 22.3344C110.219 23.1024 110.459 23.8608 110.651 24.6096L111.256 27H106.216L105.928 25.56C105.736 24.6192 105.506 23.8128 105.237 23.1408C104.987 22.4688 104.622 21.9504 104.142 21.5856C103.662 21.2016 102.971 21.0096 102.069 21.0096H100.773V27H96.2223ZM113.66 27V11.7936H118.297V27H113.66ZM115.993 9.6624C115.109 9.6624 114.428 9.48 113.948 9.1152C113.487 8.7312 113.257 8.1936 113.257 7.5024C113.257 6.7728 113.487 6.2256 113.948 5.8608C114.428 5.4768 115.109 5.2848 115.993 5.2848C116.895 5.2848 117.577 5.4768 118.037 5.8608C118.517 6.2256 118.757 6.7632 118.757 7.4736C118.757 8.184 118.517 8.7312 118.037 9.1152C117.577 9.48 116.895 9.6624 115.993 9.6624ZM127.833 27.3744C126.048 27.3744 124.732 26.904 123.888 25.9632C123.043 25.0032 122.62 23.4768 122.62 21.384V15.4224H120.46L120.547 11.8224H122.102C122.716 11.8032 123.177 11.7072 123.484 11.5344C123.811 11.3616 124.012 11.0352 124.089 10.5552L124.464 8.424H127.084V11.7936H130.742V15.5664H127.084V21.1824C127.084 21.8352 127.238 22.3152 127.545 22.6224C127.872 22.9296 128.361 23.0832 129.014 23.0832C129.379 23.0832 129.724 23.0448 130.051 22.968C130.377 22.8912 130.646 22.7856 130.857 22.6512V26.9424C130.243 27.1344 129.676 27.2496 129.158 27.288C128.659 27.3456 128.217 27.3744 127.833 27.3744Z" fill="white"/>
<path d="M25.2623 15.7293C26.5688 16.0621 27.2358 17.5149 26.6366 18.7226V18.7226C26.0374 19.9303 24.4772 20.2781 23.4218 19.4392L17.3767 14.6339C17.2059 14.498 17.1531 14.2613 17.2501 14.0658V14.0658C17.3471 13.8702 17.5675 13.769 17.7791 13.8229L25.2623 15.7293Z" fill="url(#paint0_linear_1002_625)"/>
<path d="M12.0646 23.2574C11.7318 24.5639 10.2791 25.2309 9.07135 24.6317V24.6317C7.86361 24.0325 7.51584 22.4723 8.35478 21.4169L13.1601 15.3718C13.2959 15.201 13.5326 15.1482 13.7282 15.2452V15.2452C13.9237 15.3422 14.0249 15.5627 13.971 15.7742L12.0646 23.2574Z" fill="url(#paint1_linear_1002_625)"/>
<path d="M4.53846 10.0705C3.23198 9.73768 2.56502 8.28495 3.1642 7.07721V7.07721C3.76339 5.86947 5.32362 5.5217 6.379 6.36064L12.4241 11.1659C12.5949 11.3018 12.6477 11.5385 12.5507 11.734V11.734C12.4537 11.9296 12.2332 12.0308 12.0217 11.9769L4.53846 10.0705Z" fill="url(#paint2_linear_1002_625)"/>
<path d="M17.7244 2.53895C18.0572 1.23247 19.51 0.565508 20.7177 1.16469V1.16469C21.9255 1.76388 22.2732 3.32411 21.4343 4.37949L16.629 10.4245C16.4932 10.5954 16.2564 10.6482 16.0609 10.5512V10.5512C15.8654 10.4542 15.7642 10.2337 15.818 10.0222L17.7244 2.53895Z" fill="url(#paint3_linear_1002_625)"/>
<path d="M6.19502 17.8702C5.07978 18.8598 3.31632 18.3905 2.84044 16.9775V16.9775C2.36456 15.5645 3.48482 14.124 4.97149 14.2373L8.2736 14.4889C8.54505 14.5096 8.77781 14.6906 8.8647 14.9486V14.9486C8.95159 15.2066 8.87576 15.4915 8.67214 15.6722L6.19502 17.8702Z" fill="url(#paint4_linear_1002_625)"/>
<path d="M22.8597 8.22549C23.9749 7.23592 25.7384 7.7052 26.2142 9.11819V9.11819C26.6901 10.5312 25.5699 11.9717 24.0832 11.8584L20.7811 11.6068C20.5096 11.5861 20.2769 11.4051 20.19 11.1471V11.1471C20.1031 10.8891 20.1789 10.6042 20.3826 10.4235L22.8597 8.22549Z" fill="url(#paint5_linear_1002_625)"/>
<path d="M9.70743 4.71602C8.71785 3.60078 9.18714 1.83732 10.6001 1.36143V1.36143C12.0131 0.885551 13.4536 2.00582 13.3403 3.49248L13.0887 6.7946C13.0681 7.06605 12.887 7.29881 12.629 7.3857V7.3857C12.3711 7.47259 12.0861 7.39676 11.9054 7.19313L9.70743 4.71602Z" fill="url(#paint6_linear_1002_625)"/>
<path d="M19.3473 21.3763C20.3368 22.4915 19.8676 24.255 18.4546 24.7309V24.7309C17.0416 25.2067 15.6011 24.0865 15.7143 22.5998L15.9659 19.2977C15.9866 19.0262 16.1676 18.7935 16.4256 18.7066V18.7066C16.6836 18.6197 16.9686 18.6955 17.1493 18.8992L19.3473 21.3763Z" fill="url(#paint7_linear_1002_625)"/>
<path d="M3.63829 29.7659C2.24789 28.6634 0.119923 25.8348 2.73133 23.3405" stroke="#11E442" stroke-width="3" stroke-linecap="round"/>
<defs>
<linearGradient id="paint0_linear_1002_625" x1="26.6366" y1="18.7226" x2="17.2501" y2="14.0658" gradientUnits="userSpaceOnUse">
<stop stop-color="#FF4B84"/>
<stop offset="1" stop-color="#FF1962"/>
</linearGradient>
<linearGradient id="paint1_linear_1002_625" x1="9.07135" y1="24.6317" x2="13.7282" y2="15.2452" gradientUnits="userSpaceOnUse">
<stop stop-color="#FF4B84"/>
<stop offset="1" stop-color="#FF1962"/>
</linearGradient>
<linearGradient id="paint2_linear_1002_625" x1="3.1642" y1="7.07721" x2="12.5507" y2="11.734" gradientUnits="userSpaceOnUse">
<stop stop-color="#FF4B84"/>
<stop offset="1" stop-color="#FF1962"/>
</linearGradient>
<linearGradient id="paint3_linear_1002_625" x1="20.7177" y1="1.16469" x2="16.0609" y2="10.5512" gradientUnits="userSpaceOnUse">
<stop stop-color="#FF4B84"/>
<stop offset="1" stop-color="#FF1962"/>
</linearGradient>
<linearGradient id="paint4_linear_1002_625" x1="2.84044" y1="16.9775" x2="8.8647" y2="14.9486" gradientUnits="userSpaceOnUse">
<stop stop-color="#FF4B84"/>
<stop offset="1" stop-color="#FF1962"/>
</linearGradient>
<linearGradient id="paint5_linear_1002_625" x1="26.2142" y1="9.11819" x2="20.19" y2="11.1471" gradientUnits="userSpaceOnUse">
<stop stop-color="#FF4B84"/>
<stop offset="1" stop-color="#FF1962"/>
</linearGradient>
<linearGradient id="paint6_linear_1002_625" x1="10.6001" y1="1.36143" x2="12.629" y2="7.3857" gradientUnits="userSpaceOnUse">
<stop stop-color="#FF4B84"/>
<stop offset="1" stop-color="#FF1962"/>
</linearGradient>
<linearGradient id="paint7_linear_1002_625" x1="18.4546" y1="24.7309" x2="16.4256" y2="18.7066" gradientUnits="userSpaceOnUse">
<stop stop-color="#FF4B84"/>
<stop offset="1" stop-color="#FF1962"/>
</linearGradient>
</defs>
</svg>
