<svg width="68" height="72" viewBox="0 0 68 72" fill="none" xmlns="http://www.w3.org/2000/svg">
<path d="M49.5 46.2881C49.5 59.9571 38.419 71.0381 24.75 71.0381C11.081 71.0381 0 59.9571 0 46.2881C0 32.619 11.081 21.5381 24.75 21.5381C38.419 21.5381 49.5 32.619 49.5 46.2881Z" fill="url(#paint0_linear_1165_64)"/>
<path d="M46.7446 20.075C45.2623 21.2243 43.136 19.9777 43.4149 18.1229L45.6828 3.03846C45.9015 1.58353 47.5209 0.809945 48.7902 1.55406L58.5774 7.29204C59.8467 8.03616 59.9626 9.82708 58.7998 10.7286L46.7446 20.075Z" fill="url(#paint1_linear_1165_64)"/>
<path d="M52.2591 30.5675C50.6947 30.3801 50.1588 28.3802 51.4199 27.4357L61.6757 19.7546C62.6649 19.0137 64.0896 19.5066 64.4095 20.7004L66.876 29.9057C67.1959 31.0994 66.2085 32.2386 64.9814 32.0916L52.2591 30.5675Z" fill="url(#paint2_linear_1165_64)"/>
<defs>
<linearGradient id="paint0_linear_1165_64" x1="-73.0495" y1="25.7402" x2="-73.0495" y2="75.2402" gradientUnits="userSpaceOnUse">
<stop stop-color="#96C2FF"/>
<stop offset="1" stop-color="#569CFF"/>
</linearGradient>
<linearGradient id="paint1_linear_1165_64" x1="-56.7064" y1="23.2585" x2="-41.9858" y2="-1.85047" gradientUnits="userSpaceOnUse">
<stop stop-color="#96C2FF"/>
<stop offset="1" stop-color="#569CFF"/>
</linearGradient>
<linearGradient id="paint2_linear_1165_64" x1="-49.5171" y1="32.3991" x2="-25.9012" y2="26.0712" gradientUnits="userSpaceOnUse">
<stop stop-color="#96C2FF"/>
<stop offset="1" stop-color="#569CFF"/>
</linearGradient>
</defs>
</svg>
