<svg width="32" height="32" viewBox="0 0 32 32" fill="none" xmlns="http://www.w3.org/2000/svg">
<path d="M28.2623 15.7293C29.5688 16.0621 30.2358 17.5149 29.6366 18.7226V18.7226C29.0374 19.9303 27.4772 20.2781 26.4218 19.4392L20.3767 14.6339C20.2059 14.498 20.1531 14.2613 20.2501 14.0658V14.0658C20.3471 13.8702 20.5675 13.769 20.7791 13.8229L28.2623 15.7293Z" fill="url(#paint0_linear_1002_547)"/>
<path d="M15.0646 23.2574C14.7318 24.5639 13.2791 25.2309 12.0714 24.6317V24.6317C10.8636 24.0325 10.5158 22.4723 11.3548 21.4169L16.1601 15.3718C16.2959 15.201 16.5326 15.1482 16.7282 15.2452V15.2452C16.9237 15.3422 17.0249 15.5627 16.971 15.7742L15.0646 23.2574Z" fill="url(#paint1_linear_1002_547)"/>
<path d="M7.53846 10.0705C6.23198 9.73768 5.56502 8.28495 6.1642 7.07721V7.07721C6.76339 5.86947 8.32362 5.5217 9.379 6.36064L15.4241 11.1659C15.5949 11.3018 15.6477 11.5385 15.5507 11.734V11.734C15.4537 11.9296 15.2332 12.0308 15.0217 11.9769L7.53846 10.0705Z" fill="url(#paint2_linear_1002_547)"/>
<path d="M20.7244 2.53895C21.0572 1.23247 22.51 0.565508 23.7177 1.16469V1.16469C24.9255 1.76388 25.2732 3.32411 24.4343 4.37949L19.629 10.4245C19.4932 10.5954 19.2564 10.6482 19.0609 10.5512V10.5512C18.8654 10.4542 18.7642 10.2337 18.818 10.0222L20.7244 2.53895Z" fill="url(#paint3_linear_1002_547)"/>
<path d="M9.19502 17.8702C8.07978 18.8598 6.31632 18.3905 5.84044 16.9775V16.9775C5.36456 15.5645 6.48482 14.124 7.97149 14.2373L11.2736 14.4889C11.5451 14.5096 11.7778 14.6906 11.8647 14.9486V14.9486C11.9516 15.2066 11.8758 15.4915 11.6721 15.6722L9.19502 17.8702Z" fill="url(#paint4_linear_1002_547)"/>
<path d="M25.8597 8.22549C26.9749 7.23592 28.7384 7.7052 29.2142 9.11819V9.11819C29.6901 10.5312 28.5699 11.9717 27.0832 11.8584L23.7811 11.6068C23.5096 11.5861 23.2769 11.4051 23.19 11.1471V11.1471C23.1031 10.8891 23.1789 10.6042 23.3826 10.4235L25.8597 8.22549Z" fill="url(#paint5_linear_1002_547)"/>
<path d="M12.7074 4.71602C11.7179 3.60078 12.1871 1.83732 13.6001 1.36143V1.36143C15.0131 0.885551 16.4536 2.00582 16.3403 3.49248L16.0887 6.7946C16.0681 7.06605 15.887 7.29881 15.629 7.3857V7.3857C15.3711 7.47259 15.0861 7.39676 14.9054 7.19313L12.7074 4.71602Z" fill="url(#paint6_linear_1002_547)"/>
<path d="M22.3473 21.3763C23.3368 22.4915 22.8676 24.255 21.4546 24.7309V24.7309C20.0416 25.2067 18.6011 24.0865 18.7143 22.5998L18.9659 19.2977C18.9866 19.0262 19.1676 18.7935 19.4256 18.7066V18.7066C19.6836 18.6197 19.9686 18.6955 20.1493 18.8992L22.3473 21.3763Z" fill="url(#paint7_linear_1002_547)"/>
<path d="M6.63829 29.7659C5.24789 28.6634 3.11992 25.8348 5.73133 23.3405" stroke="#11E442" stroke-width="3" stroke-linecap="round"/>
<defs>
<linearGradient id="paint0_linear_1002_547" x1="29.6366" y1="18.7226" x2="20.2501" y2="14.0658" gradientUnits="userSpaceOnUse">
<stop stop-color="#FF4B84"/>
<stop offset="1" stop-color="#FF1962"/>
</linearGradient>
<linearGradient id="paint1_linear_1002_547" x1="12.0713" y1="24.6317" x2="16.7282" y2="15.2452" gradientUnits="userSpaceOnUse">
<stop stop-color="#FF4B84"/>
<stop offset="1" stop-color="#FF1962"/>
</linearGradient>
<linearGradient id="paint2_linear_1002_547" x1="6.1642" y1="7.07721" x2="15.5507" y2="11.734" gradientUnits="userSpaceOnUse">
<stop stop-color="#FF4B84"/>
<stop offset="1" stop-color="#FF1962"/>
</linearGradient>
<linearGradient id="paint3_linear_1002_547" x1="23.7177" y1="1.16469" x2="19.0609" y2="10.5512" gradientUnits="userSpaceOnUse">
<stop stop-color="#FF4B84"/>
<stop offset="1" stop-color="#FF1962"/>
</linearGradient>
<linearGradient id="paint4_linear_1002_547" x1="5.84044" y1="16.9775" x2="11.8647" y2="14.9486" gradientUnits="userSpaceOnUse">
<stop stop-color="#FF4B84"/>
<stop offset="1" stop-color="#FF1962"/>
</linearGradient>
<linearGradient id="paint5_linear_1002_547" x1="29.2142" y1="9.11819" x2="23.19" y2="11.1471" gradientUnits="userSpaceOnUse">
<stop stop-color="#FF4B84"/>
<stop offset="1" stop-color="#FF1962"/>
</linearGradient>
<linearGradient id="paint6_linear_1002_547" x1="13.6001" y1="1.36143" x2="15.629" y2="7.3857" gradientUnits="userSpaceOnUse">
<stop stop-color="#FF4B84"/>
<stop offset="1" stop-color="#FF1962"/>
</linearGradient>
<linearGradient id="paint7_linear_1002_547" x1="21.4546" y1="24.7309" x2="19.4256" y2="18.7066" gradientUnits="userSpaceOnUse">
<stop stop-color="#FF4B84"/>
<stop offset="1" stop-color="#FF1962"/>
</linearGradient>
</defs>
</svg>
