<svg width="112" height="23" viewBox="0 0 112 23" fill="none" xmlns="http://www.w3.org/2000/svg">
<path d="M8.76768 19.702C8.85068 19.8458 9.01634 19.8899 9.18144 19.8314C12.3705 19.702 12.844 19.2846 15.1987 21.4391C15.3045 21.5842 15.4811 21.6224 15.6249 21.5394C15.7686 21.4564 15.8182 21.2876 15.7511 21.1202C15.1987 17.9834 15.1987 17.6752 17.3674 15.1052C17.5007 14.9915 17.5396 14.8292 17.4566 14.6855C17.3737 14.5419 17.2137 14.4945 17.0517 14.5585C13.348 15.1052 13.348 15.1052 11.0345 12.9507C10.9198 12.8032 10.7487 12.7622 10.6052 12.845C10.4614 12.9281 10.406 13.0999 10.4821 13.2697C11.0345 16.5654 10.4821 17.6992 8.86576 19.2846C8.72937 19.3929 8.68481 19.5585 8.76768 19.702Z" fill="url(#paint0_linear_1035_2)"/>
<path fill-rule="evenodd" clip-rule="evenodd" d="M20.0426 2.41976C21.636 4.27077 21.7183 7.10497 20.833 9.23484C20.5616 9.88757 19.8125 10.1968 19.1598 9.92543C18.5071 9.6541 18.1979 8.90499 18.4692 8.25226C19.0913 6.75569 18.9001 5.01623 18.1026 4.08978C17.7351 3.66292 17.1959 3.34633 16.3823 3.29399C15.536 3.23955 14.3354 3.47099 12.7247 4.29425C10.0173 5.67809 7.73593 7.86044 6.07344 10.2198C4.40134 12.5928 3.42443 15.0452 3.21808 16.9036C3.11461 17.8355 3.21604 18.5131 3.41424 18.9456C3.58843 19.3258 3.84547 19.551 4.26515 19.653C4.74778 19.7703 5.55143 19.7441 6.78101 19.3001C7.99709 18.861 9.53053 18.0485 11.4104 16.7383C11.9903 16.3341 12.7881 16.4766 13.1923 17.0565C13.5964 17.6364 13.454 18.4342 12.8741 18.8384C10.8821 20.2267 9.14603 21.1677 7.65045 21.7078C6.16838 22.243 4.81825 22.4218 3.66063 22.1404C2.44006 21.8438 1.57039 21.0668 1.08706 20.0119C0.62774 19.0095 0.540838 17.8192 0.673873 16.6211C0.940543 14.2195 2.13602 11.3635 3.98091 8.74529C5.83543 6.11344 8.41565 3.6219 11.5597 2.01489C13.4299 1.05898 15.0968 0.646157 16.5466 0.739425C18.0291 0.834791 19.2146 1.45788 20.0426 2.41976Z" fill="url(#paint1_linear_1035_2)"/>
<path d="M26.3941 11.4359V11.3668L29.7801 9.70833V11.004C30.1774 10.4685 30.9721 9.70833 32.1987 9.70833C33.4598 9.70833 34.2027 10.313 34.5655 11.3495C34.8764 10.6412 35.6366 9.70833 37.0704 9.70833C38.6598 9.70833 39.3681 10.7103 39.8518 12.9043L40.491 15.7894C40.8538 17.4651 41.3375 18.1389 41.7694 18.4844H38.2625L36.9841 12.4897C36.7422 11.3668 36.5522 10.5376 35.792 10.5376C35.2219 10.5376 34.8764 11.0213 34.6346 11.5914C34.7555 12.0233 34.8073 12.5415 34.8073 13.0944V14.9947C34.8073 16.8605 35.101 18.1216 35.5847 18.4844H32.1123L32.216 13.3189C32.2505 11.2804 31.9568 10.5376 30.9721 10.5376C30.4884 10.5376 30.0565 10.8485 29.7801 11.2804V15.4611C29.7801 17.1887 30.1947 18.1561 30.5921 18.4844H27.0851L27.1887 14.0272C27.2233 12.2997 26.6705 11.6259 26.3941 11.4359ZM41.5609 15.5821C41.5609 13.5954 42.8566 12.1787 44.7569 11.4359C44.3941 11.816 44.0141 12.6452 44.0141 14.0445C44.0141 15.5821 44.7915 16.9814 46.2253 16.9641C46.4845 16.9641 46.7609 16.9123 47.0373 16.8086C46.2253 14.4764 45.1888 11.4013 44.636 10.7621C44.2559 10.313 43.7031 10.2439 43.2885 10.313L43.2712 10.2611C43.8586 9.91563 44.515 9.70833 45.2233 9.70833C46.2599 9.70833 47.4174 10.192 47.9356 11.5395C48.5403 13.0944 49.2659 15.1329 49.9396 16.9296C50.216 17.6724 50.5788 18.2425 50.8207 18.4844H47.6247L47.1409 17.1023C46.6572 18.1216 45.8625 18.6226 44.6878 18.6226C42.8566 18.6226 41.5609 17.3096 41.5609 15.5821ZM52.281 18.4844H50.4498V18.4153C50.5534 18.3807 51.2617 18.1216 52.5747 16.394L53.9049 14.6492L51.5382 10.7276C51.1926 10.1575 50.588 9.96746 50.4498 9.93291V9.84653H54.5959V9.93291C54.3886 10.0711 54.3714 10.4857 54.5787 10.8312L56.1508 13.388L57.291 11.7814C57.6883 11.2286 57.9647 10.7621 57.9647 10.3821C57.9647 10.2266 57.9129 10.0711 57.792 9.93291V9.84653H59.6232V9.93291C59.5195 9.96746 58.8112 10.2093 57.4983 11.9369L56.2544 13.5608L58.2929 16.8432C59.0704 18.1216 59.5541 18.3634 59.7268 18.3807V18.4844H55.4597V18.3634C55.6843 18.2943 55.7361 17.6724 55.0451 16.5149L54.0086 14.8047L52.782 16.5495C52.3847 17.1023 52.1082 17.5688 52.1082 17.9488C52.1082 18.1216 52.1601 18.2771 52.281 18.4153V18.4844ZM60.1124 7.72162C60.1124 6.87511 60.8035 6.14953 61.6845 6.14953C62.5828 6.14953 63.222 6.87511 63.222 7.72162C63.222 8.58541 62.5828 9.25916 61.6845 9.25916C60.8035 9.25916 60.1124 8.58541 60.1124 7.72162ZM59.6633 11.4359V11.3668L63.0493 9.70833V15.4611C63.0493 17.1887 63.4639 18.1561 63.8612 18.4844H60.3543L60.4579 14.0272C60.4925 12.2997 59.9397 11.6259 59.6633 11.4359ZM64.134 11.4359V11.3668L67.5201 9.70833V11.004C67.9174 10.4685 68.7121 9.70833 69.9386 9.70833C71.1998 9.70833 71.9426 10.313 72.3054 11.3495C72.6164 10.6412 73.3765 9.70833 74.8104 9.70833C76.3998 9.70833 77.1081 10.7103 77.5918 12.9043L78.231 15.7894C78.5938 17.4651 79.0775 18.1389 79.5094 18.4844H76.0024L74.724 12.4897C74.4822 11.3668 74.2921 10.5376 73.532 10.5376C72.9619 10.5376 72.6164 11.0213 72.3745 11.5914C72.4954 12.0233 72.5473 12.5415 72.5473 13.0944V14.9947C72.5473 16.8605 72.841 18.1216 73.3247 18.4844H69.8523L69.9559 13.3189C69.9905 11.2804 69.6968 10.5376 68.7121 10.5376C68.2284 10.5376 67.7965 10.8485 67.5201 11.2804V15.4611C67.5201 17.1887 67.9347 18.1561 68.332 18.4844H64.825L64.9287 14.0272C64.9632 12.2997 64.4104 11.6259 64.134 11.4359ZM87.7379 14.2518H87.7724C87.7379 16.5668 86.0449 18.6226 83.5744 18.6226C81.0349 18.6226 79.0655 16.7223 79.0655 14.2C79.0655 11.5568 81.0695 9.70833 83.5399 9.70833C85.2329 9.70833 87.0296 10.7103 87.0296 13.0253H81.6223C81.605 13.1462 81.605 13.2671 81.605 13.388C81.605 15.3056 83.108 16.5668 84.991 16.5668C86.3904 16.5668 87.496 15.7203 87.7379 14.2518ZM83.7817 9.95019C82.5206 9.95019 81.7778 11.315 81.6223 12.8525H82.5033C84.1618 12.8525 84.9047 12.317 84.9047 11.0731C84.9047 10.5203 84.5419 9.95019 83.7817 9.95019ZM87.8881 8.11896V8.04986L91.2741 6.39139V15.4611C91.2741 17.1887 91.6887 18.1561 92.0861 18.4844H88.5791L88.6828 10.7103C88.7 8.98275 88.1645 8.30899 87.8881 8.11896ZM92.3588 8.11896V8.04986L95.7449 6.39139V11.0386C95.8658 10.7967 96.6778 9.70833 98.3881 9.70833C100.116 9.70833 101.912 10.8658 101.912 13.9581C101.912 17.3096 99.7874 18.6226 98.319 18.6226C96.8851 18.6226 96.004 17.7415 95.7449 17.5342L93.0499 18.4844L93.1535 10.7103C93.1708 8.98275 92.6353 8.30899 92.3588 8.11896ZM95.7449 11.4877V17.1196C96.0386 17.4306 96.5396 17.9488 97.4033 17.9488C98.5435 17.9488 99.1827 16.6532 99.1655 14.2173C99.1309 11.5395 98.4226 10.3303 97.317 10.3303C96.5741 10.3303 95.8831 11.1249 95.7449 11.4877ZM101.501 9.91563V9.84653H105.285V9.91563C105.233 9.95019 105.146 10.1229 105.146 10.4512C105.146 10.7449 105.215 11.1249 105.44 11.695L107.168 15.9448L108.239 13.7854C108.584 13.0771 108.722 12.4379 108.722 11.7814C108.722 10.8485 108.446 10.2093 108.204 9.91563V9.84653H110.744V9.91563C110.381 10.3648 109.828 11.0731 108.809 13.1289L107.168 16.4286V18.4844H105.423L102.901 12.3688C102.192 10.6585 101.743 10.0538 101.501 9.91563Z" fill="white"/>
<defs>
<linearGradient id="paint0_linear_1035_2" x1="21" y1="0.999998" x2="1" y2="22" gradientUnits="userSpaceOnUse">
<stop stop-color="#BB5CEB"/>
<stop offset="1" stop-color="#7B5CEB"/>
</linearGradient>
<linearGradient id="paint1_linear_1035_2" x1="21" y1="0.999998" x2="1" y2="22" gradientUnits="userSpaceOnUse">
<stop stop-color="#BB5CEB"/>
<stop offset="1" stop-color="#7B5CEB"/>
</linearGradient>
</defs>
</svg>
